<svg width="900" height="1200" viewBox="0 0 900 1200" xmlns="http://www.w3.org/2000/svg">
  <rect width="900" height="1200" fill="#f5efe7"/>
  <rect x="80" y="80" width="740" height="1040" rx="30" fill="#fffaf3" stroke="#d9c29b" stroke-width="3"/>
  <circle cx="450" cy="600" r="360" fill="#efe2c7" opacity="0.5"/>
  <path d="M254 760 C290 660, 338 520, 450 430 C560 520, 610 660, 646 760" fill="none" stroke="#8d6940" stroke-width="10" stroke-linecap="round"/>
  <path d="M314 775 C340 620, 360 530, 450 490 C540 530, 560 620, 586 775" fill="none" stroke="#a87942" stroke-width="8" stroke-linecap="round" opacity="0.8"/>
  <path d="M400 300 C385 390, 385 470, 450 560 C515 470, 515 390, 500 300" fill="none" stroke="#8d6940" stroke-width="8" stroke-linecap="round"/>
  <text x="450" y="760" text-anchor="middle" font-family="Georgia, serif" font-size="170" fill="#8d6940">بِسْمِ</text>
  <text x="450" y="910" text-anchor="middle" font-family="Georgia, serif" font-size="160" fill="#8d6940">الله</text>
  <text x="450" y="1010" text-anchor="middle" font-family="Georgia, serif" font-size="26" letter-spacing="8" fill="#6b4a2d">ARABIC CALLIGRAPHY</text>
</svg>
