<svg width="900" height="1200" viewBox="0 0 900 1200" xmlns="http://www.w3.org/2000/svg">
  <rect width="900" height="1200" fill="#f8f3ec"/>
  <rect x="70" y="70" width="760" height="1060" rx="24" fill="#fffdfb" stroke="#d9c6a5" stroke-width="4"/>
  <circle cx="180" cy="180" r="72" fill="#ead7ae" opacity="0.45"/>
  <circle cx="720" cy="1020" r="92" fill="#ead7ae" opacity="0.35"/>
  <path d="M150 220 C250 120, 350 120, 450 220 C550 120, 650 120, 750 220" fill="none" stroke="#c99d5c" stroke-width="3"/>
  <path d="M150 980 C250 1080, 350 1080, 450 980 C550 1080, 650 1080, 750 980" fill="none" stroke="#c99d5c" stroke-width="3"/>
  <text x="450" y="260" text-anchor="middle" font-family="Georgia, serif" font-size="42" letter-spacing="6" fill="#8b6b3a">YOU ARE INVITED</text>
  <text x="450" y="350" text-anchor="middle" font-family="Georgia, serif" font-size="78" font-weight="700" fill="#3d2e1f">Aisha &amp; Zayan</text>
  <text x="450" y="420" text-anchor="middle" font-family="Georgia, serif" font-size="28" fill="#8a6b41">Together with their families</text>
  <text x="450" y="520" text-anchor="middle" font-family="Georgia, serif" font-size="36" fill="#3d2e1f">Request the pleasure of your company</text>
  <text x="450" y="610" text-anchor="middle" font-family="Georgia, serif" font-size="64" fill="#8b6b3a">25th December 2026</text>
  <text x="450" y="690" text-anchor="middle" font-family="Georgia, serif" font-size="28" fill="#3d2e1f">Saturday • 6:00 PM onwards</text>
  <text x="450" y="770" text-anchor="middle" font-family="Georgia, serif" font-size="34" fill="#3d2e1f">Royal Banquet Hall</text>
  <text x="450" y="820" text-anchor="middle" font-family="Georgia, serif" font-size="24" fill="#8a6b41">Coimbatore, Tamil Nadu</text>
  <line x1="180" y1="900" x2="720" y2="900" stroke="#d9c6a5" stroke-width="2"/>
  <text x="450" y="970" text-anchor="middle" font-family="Georgia, serif" font-size="24" fill="#6a4c2e">RSVP by 12th December</text>
  <text x="450" y="1030" text-anchor="middle" font-family="Georgia, serif" font-size="28" fill="#3d2e1f">+91 98765 43210</text>
</svg>
